<svg width="16" height="20" viewBox="0 0 16 20" fill="none" xmlns="http://www.w3.org/2000/svg">
<path fill-rule="evenodd" clip-rule="evenodd" d="M7.99999 0L0 3.63636V9.09091C0 16.2091 5.72355 19.5327 7.99999 20C10.2764 19.5327 16 16.2091 16 9.09091V3.63636L7.99999 0ZM11.8892 5.61078C11.5963 5.31789 11.1214 5.31789 10.8285 5.61078L8.00011 8.43921L5.17169 5.61078C4.87879 5.31789 4.40392 5.31789 4.11103 5.61078C3.81813 5.90368 3.81813 6.37855 4.11103 6.67144L6.93945 9.49987L4.11103 12.3283C3.81813 12.6212 3.81813 13.0961 4.11103 13.389C4.40392 13.6819 4.87879 13.6819 5.17169 13.389L8.00011 10.5605L10.8285 13.389C11.1214 13.6819 11.5963 13.6819 11.8892 13.389C12.1821 13.0961 12.1821 12.6212 11.8892 12.3283L9.06077 9.49987L11.8892 6.67144C12.1821 6.37855 12.1821 5.90368 11.8892 5.61078Z" fill="#597393"/>
</svg>
