<svg width="16" height="20" viewBox="0 0 16 20" fill="none" xmlns="http://www.w3.org/2000/svg">
<path fill-rule="evenodd" clip-rule="evenodd" d="M7.99999 0L0 3.63636V9.09091C0 16.2091 5.72355 19.5327 7.99999 20C10.2764 19.5327 16 16.2091 16 9.09091V3.63636L7.99999 0ZM8 4C7.58579 4 7.25 4.33579 7.25 4.75V12.25C7.25 12.6642 7.58579 13 8 13C8.41421 13 8.75 12.6642 8.75 12.25V4.75C8.75 4.33579 8.41421 4 8 4ZM7.75 14C7.47386 14 7.25 14.2239 7.25 14.5C7.25 14.7761 7.47386 15 7.75 15H8.25C8.52614 15 8.75 14.7761 8.75 14.5C8.75 14.2239 8.52614 14 8.25 14H7.75Z" fill="#597393"/>
</svg>
