<svg width="16" height="20" viewBox="0 0 16 20" fill="none" xmlns="http://www.w3.org/2000/svg">
<path fill-rule="evenodd" clip-rule="evenodd" d="M7.99999 0L0 3.63636V9.09091C0 16.2091 5.72355 19.5327 7.99999 20C10.2764 19.5327 16 16.2091 16 9.09091V3.63636L7.99999 0ZM13.0354 6.53559C12.7425 6.24269 12.2677 6.24269 11.9748 6.53559L6.35281 12.1576C6.28705 11.9113 6.15757 11.6785 5.96438 11.4853L4.01983 9.54079C3.72694 9.2479 3.25207 9.2479 2.95917 9.54079C2.66628 9.83368 2.66628 10.3086 2.95917 10.6015L5.96438 13.6067C6.25727 13.8995 6.73214 13.8995 7.02504 13.6067L13.0354 7.59625C13.3283 7.30335 13.3283 6.82848 13.0354 6.53559Z" fill="#597393"/>
</svg>
